<svg width="60" height="61" viewBox="0 0 60 61" fill="none" xmlns="http://www.w3.org/2000/svg">
<path fill-rule="evenodd" clip-rule="evenodd" d="M35.9374 36.6814L26.5624 30.4314L35.9374 24.1814C36.0606 24.0993 36.1663 23.9938 36.2486 23.8709C36.331 23.7479 36.3883 23.61 36.4173 23.4649C36.4463 23.3198 36.4465 23.1704 36.4178 23.0253C36.389 22.8801 36.332 22.742 36.2499 22.6189C36.1679 22.4958 36.0624 22.3901 35.9394 22.3077C35.8165 22.2254 35.6785 22.1681 35.5334 22.1391C35.3883 22.11 35.2389 22.1099 35.0938 22.1386C34.9486 22.1673 34.8106 22.2243 34.6874 22.3064L24.0599 29.3914C23.8888 29.5056 23.7484 29.6602 23.6513 29.8417C23.5542 30.0231 23.5034 30.2257 23.5034 30.4314C23.5034 30.6372 23.5542 30.8398 23.6513 31.0212C23.7484 31.2026 23.8888 31.3573 24.0599 31.4714L34.6874 38.5564C34.8106 38.6385 34.9486 38.6955 35.0938 38.7242C35.2389 38.753 35.3883 38.7528 35.5334 38.7238C35.6785 38.6948 35.8165 38.6374 35.9394 38.5551C36.0624 38.4728 36.1679 38.367 36.2499 38.2439C36.332 38.1208 36.389 37.9827 36.4178 37.8376C36.4465 37.6924 36.4463 37.543 36.4173 37.398C36.3883 37.2529 36.331 37.1149 36.2486 36.992C36.1663 36.869 36.0606 36.7635 35.9374 36.6814Z" fill="#09B451"/>
<rect x="0.5" y="0.931641" width="59" height="59" rx="29.5" stroke="#09B451"/>
</svg>
