<svg width="60" height="61" viewBox="0 0 60 61" fill="none" xmlns="http://www.w3.org/2000/svg">
<path fill-rule="evenodd" clip-rule="evenodd" d="M24.0626 36.6814L33.4376 30.4314L24.0626 24.1814C23.9394 24.0993 23.8337 23.9938 23.7514 23.8709C23.669 23.7479 23.6117 23.61 23.5827 23.4649C23.5537 23.3198 23.5535 23.1704 23.5822 23.0253C23.611 22.8801 23.668 22.742 23.7501 22.6189C23.8321 22.4958 23.9376 22.3901 24.0606 22.3077C24.1835 22.2254 24.3215 22.1681 24.4666 22.1391C24.6117 22.11 24.7611 22.1099 24.9062 22.1386C25.0514 22.1673 25.1894 22.2243 25.3126 22.3064L35.9401 29.3914C36.1112 29.5056 36.2516 29.6602 36.3487 29.8417C36.4458 30.0231 36.4966 30.2257 36.4966 30.4314C36.4966 30.6372 36.4458 30.8398 36.3487 31.0212C36.2516 31.2026 36.1112 31.3573 35.9401 31.4714L25.3126 38.5564C25.1894 38.6385 25.0514 38.6955 24.9062 38.7242C24.7611 38.753 24.6117 38.7528 24.4666 38.7238C24.3215 38.6948 24.1835 38.6374 24.0606 38.5551C23.9376 38.4728 23.8321 38.367 23.7501 38.2439C23.668 38.1208 23.611 37.9827 23.5822 37.8376C23.5535 37.6924 23.5537 37.543 23.5827 37.398C23.6117 37.2529 23.669 37.1149 23.7514 36.992C23.8337 36.869 23.9394 36.7635 24.0626 36.6814Z" fill="#09B451"/>
<rect x="-0.5" y="0.5" width="59" height="59" rx="29.5" transform="matrix(-1 0 0 1 59 0.431641)" stroke="#09B451"/>
</svg>
