<svg width="158" height="27" viewBox="0 0 158 27" fill="none" xmlns="http://www.w3.org/2000/svg">
<path fill-rule="evenodd" clip-rule="evenodd" d="M0 12.9923C0 18.9583 4.333 23.9193 10 24.9253V16.2583H7V12.9253H10V10.2583C10 7.25829 11.933 5.59229 14.667 5.59229C15.533 5.59229 16.467 5.72529 17.333 5.85829V8.92529H15.8C14.333 8.92529 14 9.65829 14 10.5923V12.9253H17.2L16.667 16.2583H14V24.9253C19.667 23.9193 24 18.9593 24 12.9923C24 6.35529 18.6 0.925293 12 0.925293C5.4 0.925293 0 6.35529 0 12.9923Z" fill="#0AC75A" fill-opacity="0.8"/>
<path fill-rule="evenodd" clip-rule="evenodd" d="M99.4171 2.99129C100.59 2.93729 100.964 2.92529 103.952 2.92529C106.94 2.92529 107.314 2.93829 108.486 2.99129C109.658 3.04429 110.458 3.23129 111.158 3.50229C111.891 3.77929 112.556 4.21229 113.106 4.77229C113.666 5.32129 114.098 5.98529 114.374 6.71929C114.646 7.41929 114.832 8.21929 114.886 9.38929C114.94 10.5643 114.952 10.9383 114.952 13.9253C114.952 16.9133 114.939 17.2873 114.886 18.4603C114.833 19.6303 114.646 20.4303 114.374 21.1303C114.098 21.8644 113.665 22.5295 113.106 23.0793C112.556 23.6393 111.891 24.0713 111.158 24.3473C110.458 24.6193 109.658 24.8053 108.488 24.8593C107.314 24.9133 106.94 24.9253 103.952 24.9253C100.964 24.9253 100.59 24.9123 99.4171 24.8593C98.2471 24.8063 97.4471 24.6193 96.7471 24.3473C96.0131 24.0713 95.348 23.6385 94.7981 23.0793C94.2385 22.53 93.8055 21.8652 93.5291 21.1313C93.2581 20.4313 93.0721 19.6313 93.0181 18.4613C92.9641 17.2863 92.9521 16.9123 92.9521 13.9253C92.9521 10.9373 92.9651 10.5633 93.0181 9.39129C93.0711 8.21929 93.2581 7.41929 93.5291 6.71929C93.8059 5.98537 94.2393 5.32061 94.7991 4.77129C95.3482 4.21179 96.0126 3.77874 96.7461 3.50229C97.4461 3.23129 98.2461 3.04529 99.4161 2.99129H99.4171ZM108.397 4.97129C107.237 4.91829 106.889 4.90729 103.952 4.90729C101.015 4.90729 100.667 4.91829 99.5071 4.97129C98.4341 5.02029 97.8521 5.19929 97.4641 5.35029C96.9511 5.55029 96.5841 5.78729 96.1991 6.17229C95.8342 6.52734 95.5533 6.95958 95.3771 7.43729C95.2261 7.82529 95.0471 8.40729 94.9981 9.48029C94.9451 10.6403 94.9341 10.9883 94.9341 13.9253C94.9341 16.8623 94.9451 17.2103 94.9981 18.3703C95.0471 19.4433 95.2261 20.0253 95.3771 20.4133C95.5531 20.8903 95.8341 21.3233 96.1991 21.6783C96.5541 22.0433 96.9871 22.3243 97.4641 22.5003C97.8521 22.6513 98.4341 22.8303 99.5071 22.8793C100.667 22.9323 101.014 22.9433 103.952 22.9433C106.89 22.9433 107.237 22.9323 108.397 22.8793C109.47 22.8303 110.052 22.6513 110.44 22.5003C110.953 22.3003 111.32 22.0633 111.705 21.6783C112.07 21.3233 112.351 20.8903 112.527 20.4133C112.678 20.0253 112.857 19.4433 112.906 18.3703C112.959 17.2103 112.97 16.8623 112.97 13.9253C112.97 10.9883 112.959 10.6403 112.906 9.48029C112.857 8.40729 112.678 7.82529 112.527 7.43729C112.327 6.92429 112.09 6.55729 111.705 6.17229C111.35 5.80736 110.918 5.5265 110.44 5.35029C110.052 5.19929 109.47 5.02029 108.397 4.97129ZM102.547 17.3163C103.332 17.6429 104.206 17.687 105.019 17.441C105.833 17.195 106.536 16.6742 107.008 15.9675C107.48 15.2609 107.692 14.4122 107.608 13.5664C107.524 12.7206 107.149 11.9303 106.547 11.3303C106.163 10.9468 105.699 10.6531 105.188 10.4704C104.678 10.2878 104.133 10.2207 103.593 10.2739C103.053 10.3272 102.531 10.4995 102.066 10.7784C101.601 11.0574 101.203 11.436 100.901 11.8871C100.6 12.3383 100.402 12.8506 100.323 13.3873C100.243 13.9239 100.283 14.4716 100.441 14.9908C100.598 15.51 100.869 15.9879 101.233 16.39C101.597 16.7921 102.046 17.1085 102.547 17.3163ZM99.9541 9.92729C100.479 9.40227 101.102 8.9858 101.788 8.70165C102.474 8.41751 103.21 8.27127 103.952 8.27127C104.695 8.27127 105.43 8.41751 106.116 8.70165C106.802 8.9858 107.425 9.40227 107.95 9.92729C108.475 10.4523 108.892 11.0756 109.176 11.7616C109.46 12.4476 109.606 13.1828 109.606 13.9253C109.606 14.6678 109.46 15.403 109.176 16.089C108.892 16.775 108.475 17.3983 107.95 17.9233C106.89 18.9836 105.452 19.5793 103.952 19.5793C102.453 19.5793 101.014 18.9836 99.9541 17.9233C98.8938 16.863 98.2981 15.4248 98.2981 13.9253C98.2981 12.4258 98.8938 10.9876 99.9541 9.92729ZM110.86 9.11329C110.99 8.99056 111.094 8.84297 111.166 8.67927C111.238 8.51556 111.277 8.33906 111.28 8.16022C111.282 7.98138 111.249 7.80384 111.182 7.6381C111.114 7.47237 111.015 7.3218 110.888 7.19533C110.762 7.06886 110.611 6.96905 110.445 6.90181C110.28 6.83457 110.102 6.80127 109.923 6.80388C109.744 6.80648 109.568 6.84495 109.404 6.91699C109.24 6.98903 109.093 7.09319 108.97 7.22329C108.731 7.47632 108.601 7.81241 108.606 8.16022C108.611 8.50803 108.751 8.84017 108.997 9.08614C109.243 9.3321 109.575 9.47252 109.923 9.47759C110.271 9.48266 110.607 9.35198 110.86 9.11329Z" fill="#0AC75A" fill-opacity="0.8"/>
<path fill-rule="evenodd" clip-rule="evenodd" d="M146.027 9.89429H149.565V11.7443C150.074 10.6803 151.381 9.72429 153.344 9.72429C157.106 9.72429 158 11.8423 158 15.7283V22.9253H154.19V16.6133C154.19 14.4003 153.681 13.1523 152.384 13.1523C150.585 13.1523 149.837 14.4973 149.837 16.6123V22.9253H146.027V9.89429ZM139.495 22.7553H143.305V9.72429H139.495V22.7553ZM143.85 5.47529C143.85 5.81057 143.787 6.14253 143.664 6.45188C143.541 6.76123 143.36 7.04181 143.133 7.27729C142.673 7.75792 142.049 8.02695 141.4 8.02529C140.752 8.02484 140.13 7.75649 139.668 7.27829C139.442 7.04201 139.262 6.76112 139.139 6.45172C139.016 6.14233 138.953 5.81052 138.952 5.47529C138.952 4.79829 139.209 4.15029 139.669 3.67229C140.13 3.19345 140.752 2.92499 141.401 2.92529C142.05 2.92529 142.673 3.19429 143.133 3.67229C143.592 4.15029 143.85 4.79829 143.85 5.47529Z" fill="#0AC75A" fill-opacity="0.8"/>
<path d="M58.4762 4.92529C52.6909 4.92529 48 9.85074 48 15.9253C48 21.9998 52.6909 26.9253 58.4762 26.9253C64.2615 26.9253 68.9524 21.9998 68.9524 15.9253C68.9524 9.85074 64.2615 4.92529 58.4762 4.92529ZM63.5108 13.217C63.5179 13.3324 63.5179 13.4527 63.5179 13.5706C63.5179 17.1751 60.9035 21.3271 56.1261 21.3271C54.6528 21.3271 53.2872 20.8777 52.1367 20.1043C52.3472 20.1289 52.5483 20.1387 52.7634 20.1387C53.9794 20.1387 55.0972 19.7065 55.9881 18.9748C54.8469 18.9503 53.8882 18.1646 53.5608 17.0842C53.9607 17.1456 54.3208 17.1456 54.7324 17.0351C54.1448 16.9098 53.6166 16.5747 53.2377 16.0868C52.8587 15.5989 52.6523 14.9883 52.6535 14.3588V14.3244C52.9972 14.5282 53.4018 14.6534 53.825 14.6706C53.4692 14.4216 53.1774 14.0843 52.9755 13.6885C52.7736 13.2928 52.6678 12.8508 52.6675 12.4019C52.6675 11.8936 52.7938 11.4295 53.0206 11.0269C53.6728 11.8699 54.4867 12.5593 55.4092 13.0505C56.3318 13.5416 57.3425 13.8234 58.3756 13.8775C58.0085 12.0237 59.3274 10.5235 60.9128 10.5235C61.6611 10.5235 62.3346 10.8525 62.8093 11.3829C63.3963 11.2675 63.9575 11.0367 64.4579 10.7273C64.2638 11.3583 63.8569 11.8911 63.3168 12.2275C63.8406 12.1686 64.3457 12.0164 64.8134 11.8027C64.4602 12.3478 64.0183 12.8315 63.5108 13.217Z" fill="#0AC75A" fill-opacity="0.8"/>
</svg>
